<svg xmlns="http://www.w3.org/2000/svg" viewBox="0 0 1200 800" role="img" aria-label="A scrapbook-style group photo with four guests and two hosts around a noodle table">
  <defs>
    <pattern id="deskGrain" width="42" height="42" patternUnits="userSpaceOnUse">
      <path d="M0 11h42M0 33h42" stroke="#8A5A3D" stroke-width="2" opacity=".08"/>
      <circle cx="9" cy="22" r="1.2" fill="#663C2A" opacity=".1"/>
    </pattern>
    <filter id="photoShadow" x="-20%" y="-20%" width="140%" height="150%">
      <feDropShadow dx="0" dy="14" stdDeviation="12" flood-color="#3F2A23" flood-opacity=".25"/>
    </filter>
    <radialGradient id="flash" cx="50%" cy="50%" r="50%">
      <stop offset="0" stop-color="#FFFDF7" stop-opacity="1"/>
      <stop offset=".45" stop-color="#F5C84C" stop-opacity=".38"/>
      <stop offset="1" stop-color="#F5C84C" stop-opacity="0"/>
    </radialGradient>
  </defs>

  <rect width="1200" height="800" fill="#B77A52"/>
  <rect width="1200" height="800" fill="url(#deskGrain)"/>
  <g transform="rotate(-1 600 400)" filter="url(#photoShadow)">
    <path d="M48 38 1152 45 1142 748 58 755Z" fill="#FFFDF7" stroke="#663C2A" stroke-width="5"/>
    <path d="M83 75 1117 80 1110 650 89 646Z" fill="#FFF3D5"/>
    <path d="M87 80 1113 84 1107 647 92 643Z" fill="#FFF8E8" stroke="#E9D6B8" stroke-width="3" stroke-dasharray="5 12"/>

    <g font-family="ui-rounded, 'PingFang SC', 'Microsoft YaHei', sans-serif" font-weight="800" fill="#663C2A">
      <path d="m90 101 153-10 5 52-153 10Z" fill="#F5C84C" opacity=".9"/>
      <text x="169" y="127" font-size="25" text-anchor="middle">四位客人</text>
      <path d="m91 393 151 7-3 51-150-7Z" fill="#F5B8C1" opacity=".92"/>
      <text x="165" y="429" font-size="25" text-anchor="middle">两位主人</text>
    </g>

    <g opacity=".7" fill="none" stroke="#663C2A" stroke-width="4" stroke-linecap="round" stroke-dasharray="4 12">
      <path d="M252 119c179-32 510-31 755 5"/>
      <path d="M247 417c180-22 396-12 521 13"/>
    </g>

    <image href="noodle-cat.svg" x="112" y="118" width="248" height="274" preserveAspectRatio="xMidYMid meet"/>
    <image href="product-bear.svg" x="350" y="114" width="248" height="278" preserveAspectRatio="xMidYMid meet"/>
    <image href="native-ghosts.svg" x="588" y="112" width="248" height="280" preserveAspectRatio="xMidYMid meet"/>
    <image href="ops-fluffy.svg" x="825" y="115" width="248" height="277" preserveAspectRatio="xMidYMid meet"/>

    <path d="M293 407c114-39 450-38 561 10" fill="#F5C84C" fill-opacity=".2" stroke="#F5C84C" stroke-width="7" stroke-linecap="round"/>
    <image href="blogger-dog.svg" x="330" y="355" width="270" height="268" preserveAspectRatio="xMidYMid meet"/>
    <image href="home-chef.svg" x="612" y="354" width="270" height="270" preserveAspectRatio="xMidYMid meet"/>

    <path d="M143 579c162-36 730-35 912 5l17 60c-220 43-713 42-947-3Z" fill="#F0C895" stroke="#663C2A" stroke-width="8" stroke-linejoin="round"/>
    <path d="M168 602c188-24 660-23 867 3" fill="none" stroke="#FFF8E8" stroke-width="5" opacity=".6"/>

    <g transform="translate(523 535)">
      <ellipse cx="80" cy="77" rx="111" ry="38" fill="#FFFDF7" stroke="#663C2A" stroke-width="8"/>
      <path d="M-22 78c10 66 41 91 102 91s92-25 102-91" fill="#E85D4A" stroke="#663C2A" stroke-width="8"/>
      <path d="M17 73c21-34 43-17 62-39 20 24 45 2 66 37" fill="none" stroke="#C8792C" stroke-width="12" stroke-linecap="round"/>
      <path d="M26 63c22-17 31 5 49-14 17 18 31-2 54 15" fill="none" stroke="#F5C84C" stroke-width="7" stroke-linecap="round"/>
      <path d="M57 25c-18-20 12-31-1-50m50 48c19-21-12-31 2-52" fill="none" stroke="#FFFDF7" stroke-width="9" stroke-linecap="round" opacity=".85"/>
    </g>

    <g fill="#E85D4A" stroke="#663C2A" stroke-width="3">
      <circle cx="1021" cy="206" r="10" fill="#83A95C"/>
      <path d="m1001 466 13 26 28 4-20 20 5 28-26-13-25 13 5-28-21-20 29-4Z" fill="#F5C84C"/>
      <path d="m229 499 25-17 8 30Z" fill="#F5B8C1"/>
    </g>

    <g transform="translate(1010 103)">
      <circle cx="0" cy="0" r="92" fill="url(#flash)"/>
      <path d="M0-67v28M0 39v28M-67 0h28M39 0h28M-48-48l20 20m56 56 20 20m0-96-20 20m-56 56-20 20" stroke="#FFFDF7" stroke-width="8" stroke-linecap="round"/>
    </g>
  </g>

  <path d="m135 36 166 4-6 43-165-4Z" fill="#F5B8C1" opacity=".78" transform="rotate(-7 216 59)"/>
  <path d="m901 729 171-8 3 43-171 8Z" fill="#83A95C" opacity=".76" transform="rotate(5 987 746)"/>
</svg>
