<svg xmlns="http://www.w3.org/2000/svg" viewBox="0 0 512 512" role="img" aria-label="A home chef seen from behind at sunset wearing an apron and holding a spatula">
  <defs>
    <linearGradient id="sunsetGlow" x1="0" y1="0" x2="0" y2="1"><stop stop-color="#F5C84C"/><stop offset=".55" stop-color="#E98A51"/><stop offset="1" stop-color="#E85D4A"/></linearGradient>
    <linearGradient id="shirt" x1="0" y1="0" x2="1" y2="1"><stop stop-color="#8FAB68"/><stop offset="1" stop-color="#607C4B"/></linearGradient>
    <linearGradient id="apron" x1="0" y1="0" x2="0" y2="1"><stop stop-color="#FFF8E9"/><stop offset="1" stop-color="#E9D6B8"/></linearGradient>
    <filter id="shadow" x="-25%" y="-25%" width="150%" height="160%"><feDropShadow dx="0" dy="8" stdDeviation="7" flood-color="#663C2A" flood-opacity=".22"/></filter>
    <filter id="paper"><feTurbulence baseFrequency=".72" numOctaves="2" seed="37"/><feColorMatrix type="saturate" values="0"/><feComponentTransfer><feFuncA type="table" tableValues="0 .065"/></feComponentTransfer><feBlend in="SourceGraphic" mode="multiply"/></filter>
  </defs>
  <g filter="url(#shadow)">
    <path d="M111 195c-15-45 12-91 56-105 12-45 61-68 101-48 42-19 91 8 99 54 39 18 59 62 45 102 33 22 41 67 18 98 28 28 25 73-5 98-3 44-44 75-86 65-29 28-77 29-107 2-39 16-84-10-91-52-41-19-54-70-28-103-30-28-31-79-2-111Z" fill="#FFF8E9" stroke="#FFF8E9" stroke-width="31" stroke-linejoin="round"/>
    <g filter="url(#paper)" stroke="#663C2A" stroke-linecap="round" stroke-linejoin="round">
      <!-- warm halo, still transparent outside -->
      <path d="M92 291c2-115 69-207 164-207s162 92 164 207c0 77-59 143-164 143S91 368 92 291Z" fill="url(#sunsetGlow)" fill-opacity=".28" stroke="#F5C84C" stroke-width="8"/>
      <circle cx="378" cy="142" r="52" fill="#F5C84C" stroke-width="8"/>
      <path d="M342 143c23-12 49-12 72 0" fill="none" stroke="#FFF8E9" stroke-width="6" opacity=".8"/>
      <path d="M76 230c36-17 72-14 106 5m-92 26c28-13 58-10 83 4m163-31c39-15 72-9 100 8m-91 22c27-10 52-7 75 5" fill="none" stroke="#E85D4A" stroke-width="8" opacity=".6"/>
      <!-- legs -->
      <path d="M194 370c-10 27-13 69-2 93 12 27 48 24 59-3l5-42 5 42c11 27 47 30 59 3 11-24 8-66-2-93Z" fill="#495A44" stroke-width="10"/>
      <path d="M181 460c15 17 49 18 65 0m20 0c16 18 50 17 65 0" fill="#663C2A" stroke-width="9"/>
      <!-- torso from behind -->
      <path d="M149 244c10-45 45-77 107-77s97 32 107 77l26 121c-56 53-210 53-266 0Z" fill="url(#shirt)" stroke-width="11"/>
      <!-- head and hair from behind -->
      <path d="M197 153c-5-54 17-97 59-97s64 43 59 97l-15 48h-88Z" fill="#D69A67" stroke-width="10"/>
      <path d="M188 141c-3-65 24-103 69-103 39 0 68 30 68 81-12-12-21-27-26-43-20 21-63 29-102 21 2 17-1 31-9 44Z" fill="#3F2A23" stroke-width="10"/>
      <path d="m239 49 13-22 13 20 20-16 2 26 24-2-11 24" fill="#3F2A23" stroke-width="7"/>
      <path d="M205 155c11 13 23 20 37 23m65-23c-11 13-23 20-37 23" fill="none" stroke="#B97451" stroke-width="5"/>
      <!-- apron straps and bib -->
      <path d="M191 198c9-12 20-20 34-25l31 43 31-43c14 5 25 13 34 25l-18 55 24 151c-41 24-101 24-142 0l24-151Z" fill="url(#apron)" stroke-width="9"/>
      <path d="m225 173 31 43 31-43M209 253c30 21 64 21 94 0" fill="none" stroke-width="7"/>
      <path d="M198 323h116l9 71c-38 19-87 19-125 0Z" fill="#F5B8C1" stroke-width="8"/>
      <path d="M221 344c23 11 47 11 70 0" fill="none" stroke-width="6"/>
      <!-- left arm holding pan -->
      <path d="M157 250c-42 20-60 75-37 99 16 17 40 7 58-20" fill="url(#shirt)" stroke-width="10"/>
      <circle cx="134" cy="340" r="17" fill="#D69A67" stroke-width="7"/>
      <path d="M121 344 51 383" fill="none" stroke-width="14"/>
      <ellipse cx="64" cy="398" rx="44" ry="25" fill="#495A44" stroke-width="10" transform="rotate(-15 64 398)"/>
      <path d="M41 391c14 9 31 11 47 5" fill="none" stroke="#F5C84C" stroke-width="6"/>
      <!-- right arm and spatula -->
      <path d="M355 250c42 20 60 75 37 99-16 17-40 7-58-20" fill="url(#shirt)" stroke-width="10"/>
      <circle cx="378" cy="340" r="17" fill="#D69A67" stroke-width="7"/>
      <path d="m385 331 50-126" fill="none" stroke-width="13"/>
      <path d="m425 207 21-64 35 12-23 65Z" fill="#83A95C" stroke-width="9"/>
      <path d="m441 166 22 8m-27 7 22 8m-27 7 22 8" fill="none" stroke="#FFF8E9" stroke-width="5"/>
      <!-- warm rim light -->
      <path d="M188 141c-2-55 23-93 68-93m69 69c3 21-1 38-12 52m50 75c16 9 28 25 34 46M149 244c-17 9-30 26-36 48" fill="none" stroke="#F5C84C" stroke-width="9"/>
      <!-- steam and flavor sparks -->
      <path d="M57 349c-9-13 4-21 1-33-3-12-15-17-6-31m33 58c-8-11 4-19 0-29" fill="none" stroke="#FFF8E9" stroke-width="7"/>
      <path d="m444 280 25-7m-19 30 23 9M77 181l-23-10m36-16-10-23" fill="none" stroke="#F5C84C" stroke-width="8"/>
      <!-- sunset clouds and kitchen details -->
      <path d="M100 113c17-14 34-15 50-2 17-20 39-20 56 0 14-8 28-6 41 7M336 87c14-10 27-10 40 0 15-14 32-13 46 2 12-5 23-2 33 7" fill="none" stroke="#FFF8E9" stroke-width="7" opacity=".8"/>
      <g fill="#F5C84C" stroke="none"><circle cx="91" cy="308" r="6"/><circle cx="423" cy="339" r="7"/><circle cx="111" cy="135" r="5"/></g>
      <path d="M154 418c18 6 34 7 49 2m106 1c16 5 32 4 49-2" fill="none" stroke="#F5C84C" stroke-width="6"/>
      <path d="m37 433 11 8 15-17m390 10 10 8 16-18" fill="none" stroke="#83A95C" stroke-width="6"/>
      <path d="M241 287c10 6 20 6 30 0m-25 19c7 4 14 4 21 0" fill="none" stroke="#E85D4A" stroke-width="5" opacity=".65"/>
    </g>
  </g>
</svg>
