<svg xmlns="http://www.w3.org/2000/svg" viewBox="0 0 512 512" role="img" aria-label="A fluffy operations mascot with tickets, coins, a megaphone, and a checklist">
  <defs>
    <linearGradient id="fluff" x1="0" y1="0" x2="1" y2="1"><stop stop-color="#FFFDF8"/><stop offset="1" stop-color="#EFE4D3"/></linearGradient>
    <linearGradient id="megaphone" x1="0" y1="0" x2="1" y2="1"><stop stop-color="#F37968"/><stop offset="1" stop-color="#E85D4A"/></linearGradient>
    <filter id="shadow" x="-25%" y="-25%" width="150%" height="160%"><feDropShadow dx="0" dy="8" stdDeviation="7" flood-color="#663C2A" flood-opacity=".2"/></filter>
    <filter id="paper"><feTurbulence baseFrequency=".76" numOctaves="2" seed="29"/><feColorMatrix type="saturate" values="0"/><feComponentTransfer><feFuncA type="table" tableValues="0 .065"/></feComponentTransfer><feBlend in="SourceGraphic" mode="multiply"/></filter>
  </defs>
  <g filter="url(#shadow)">
    <path d="M115 148c-20-34 8-73 44-69 12-43 66-55 93-24 31-30 84-13 92 30 38-3 63 37 43 70 35 15 43 60 17 86 32 20 35 67 6 91 22 36-2 81-41 85-7 41-54 59-86 35-28 33-81 28-102-10-39 15-78-18-70-58-37-11-52-57-28-87-29-25-20-72 15-87-21-17-13-50 17-62Z" fill="#FFF8E9" stroke="#FFF8E9" stroke-width="31" stroke-linejoin="round"/>
    <g filter="url(#paper)" stroke="#663C2A" stroke-linecap="round" stroke-linejoin="round">
      <!-- ticket crown -->
      <g stroke-width="8">
        <path d="m125 136-16-72 52-12 17 75Z" fill="#F5B8C1"/>
        <path d="m165 116-3-85 57-2 4 86Z" fill="#FFD2D8"/>
        <path d="m218 110 4-87 58 4-6 88Z" fill="#F5B8C1"/>
        <path d="m272 115 15-82 57 11-17 81Z" fill="#FFD2D8"/>
        <path d="m324 132 27-72 53 21-29 72Z" fill="#F5B8C1"/>
        <path d="M120 91h46m3-24 48-2m7 1 50 3m17 12 46 9m13 26 38 15" fill="none" stroke="#FFF8E9" stroke-width="7"/>
        <path d="m140 67 8 37m39-68 3 69m60-77-2 74m68-60-13 68m76-42-23 58" fill="none" stroke="#E85D4A" stroke-width="5" opacity=".7"/>
      </g>
      <!-- coin garland -->
      <path d="M127 143c52-39 190-42 255 4" fill="none" stroke-width="8"/>
      <g fill="#F5C84C" stroke-width="7">
        <circle cx="145" cy="136" r="20"/><circle cx="189" cy="116" r="20"/><circle cx="237" cy="108" r="20"/><circle cx="286" cy="112" r="20"/><circle cx="333" cy="128" r="20"/><circle cx="373" cy="151" r="20"/>
      </g>
      <g fill="none" stroke="#C8792C" stroke-width="5"><path d="m139 136 12 0m32-20h12m36-8h12m37 4h12m35 16h12m28 23h12"/></g>
      <!-- fluffy body -->
      <path d="M117 239c-30-18-26-61 6-73-11-34 22-65 54-50 16-34 62-39 84-10 27-27 72-14 81 23 35-4 59 33 41 63 31 13 36 54 10 72 25 25 11 68-23 74 9 36-27 66-60 49-20 30-64 30-84 0-34 18-70-13-60-49-37-7-49-53-19-76-30 1-48-23-30-23Z" fill="url(#fluff)" stroke-width="11"/>
      <!-- face -->
      <circle cx="210" cy="214" r="10" fill="#663C2A" stroke="none"/>
      <circle cx="304" cy="214" r="10" fill="#663C2A" stroke="none"/>
      <path d="m257 233-13 9 13 10 13-10Z" fill="#E85D4A" stroke-width="5"/>
      <path d="M257 251v9m0 0c-15 14-30 6-34-5m34 5c15 14 30 6 34-5" fill="none" stroke-width="7"/>
      <circle cx="183" cy="251" r="15" fill="#F5B8C1" stroke="none" opacity=".75"/>
      <circle cx="331" cy="251" r="15" fill="#F5B8C1" stroke="none" opacity=".75"/>
      <!-- legs -->
      <path d="M194 365c-17 30-12 83 17 98 27 14 49-10 46-43 1 35 26 57 52 41 27-16 29-65 11-95Z" fill="url(#fluff)" stroke-width="10"/>
      <path d="M193 445c15 10 34 9 46-2m39 1c14 9 33 8 43-3" fill="none" stroke-width="6"/>
      <!-- megaphone and arm -->
      <path d="M161 282c-45-6-72 24-57 53 12 23 38 22 68 1" fill="url(#fluff)" stroke-width="10"/>
      <path d="m50 284 84-24 12 84-91-29Z" fill="url(#megaphone)" stroke-width="10"/>
      <ellipse cx="52" cy="299" rx="25" ry="20" fill="#FFF8E9" stroke-width="9" transform="rotate(6 52 299)"/>
      <path d="m126 337 24 50 30-12-28-52" fill="#F5C84C" stroke-width="9"/>
      <circle cx="157" cy="318" r="17" fill="#FFFDF8" stroke-width="7"/>
      <path d="M34 252 15 232m35 0-3-29m15 43 17-22" fill="none" stroke="#E85D4A" stroke-width="8"/>
      <!-- checklist and arm -->
      <path d="M352 285c45-4 68 30 51 57-13 20-38 17-64-5" fill="url(#fluff)" stroke-width="10"/>
      <path d="m337 289 112 8-10 142-112-8Z" fill="#FFF8E9" stroke-width="10"/>
      <path d="M365 276h54l5 29h-66Z" fill="#83A95C" stroke-width="8"/>
      <g fill="none" stroke-width="6"><path d="m347 334 8 9 16-17m-26 45 8 9 16-17m-27 45 8 9 16-17" stroke="#83A95C"/><path d="M383 337h42m-45 39h42m-45 39h41"/></g>
      <circle cx="351" cy="326" r="17" fill="#FFFDF8" stroke-width="7"/>
      <!-- floating coins -->
      <g fill="#F5C84C" stroke-width="6"><circle cx="449" cy="211" r="20"/><circle cx="461" cy="257" r="15"/><circle cx="74" cy="171" r="17"/></g>
      <path d="M441 211h16m-390-40h14m374 86h12" fill="none" stroke="#C8792C" stroke-width="5"/>
      <!-- campaign rhythm markers -->
      <path d="M69 124c12-14 27-18 44-12m304 31c16 2 29 10 38 23" fill="none" stroke="#F5B8C1" stroke-width="7" stroke-dasharray="4 12"/>
      <g stroke-width="5">
        <path d="m36 386 54-15 16 58-54 15Z" fill="#FFF8E9"/>
        <path d="m52 397 7 7 14-17m-13 28 7 7 14-17" fill="none" stroke="#83A95C"/>
        <path d="m83 392 10-3m-3 20 9-3" fill="none"/>
      </g>
      <g fill="#E85D4A" stroke="none"><circle cx="90" cy="102" r="6"/><circle cx="423" cy="120" r="7"/><circle cx="469" cy="334" r="6"/></g>
      <path d="m453 374 24 7m-30 13 21 12m-28 4 15 17" fill="none" stroke="#F5C84C" stroke-width="7"/>
    </g>
  </g>
</svg>
