<svg xmlns="http://www.w3.org/2000/svg" viewBox="0 0 24 24" fill="none" stroke="#663C2A" stroke-width="1.8" stroke-linecap="round" stroke-linejoin="round" role="img" aria-label="分享">
  <path d="M8.8 11.2 15.2 7M8.8 13l6.4 4"/>
  <path d="M5.2 9.5c1.6-.1 2.7.9 2.8 2.4-.1 1.5-1.1 2.5-2.7 2.6-1.5-.1-2.5-1-2.6-2.5.1-1.5 1-2.4 2.5-2.5ZM18.4 4.3c1.5.1 2.4 1 2.5 2.5-.1 1.5-1.1 2.4-2.6 2.5-1.5-.1-2.4-1-2.5-2.5.1-1.5 1.1-2.4 2.6-2.5ZM18.4 14.8c1.5.1 2.4 1 2.5 2.5-.1 1.5-1.1 2.4-2.6 2.5-1.5-.1-2.4-1-2.5-2.5.1-1.5 1.1-2.4 2.6-2.5Z"/>
</svg>
